<svg xmlns="http://www.w3.org/2000/svg" xmlns:xlink="http://www.w3.org/1999/xlink" width="50" height="50" viewBox="0 0 50 50"><defs><style>.a{fill:url(#a);}.b{fill:#fff;}</style><linearGradient id="a" y1="0.5" x2="1" y2="0.5" gradientUnits="objectBoundingBox"><stop offset="0" stop-color="#00aae9"/><stop offset="1" stop-color="#61d2e5"/></linearGradient></defs><g transform="translate(0 -0.399)"><rect class="a" width="50" height="50" rx="10.25" transform="translate(0 0.399)"/><path class="b" d="M8.831,23.585l-8.45-8.45a1.3,1.3,0,0,1,0-1.839l1.838-1.839a1.3,1.3,0,0,1,1.839,0L9.75,17.15,21.943,4.958a1.3,1.3,0,0,1,1.839,0L25.62,6.8a1.3,1.3,0,0,1,0,1.839l-14.95,14.95A1.3,1.3,0,0,1,8.831,23.585Z" transform="translate(12 11.151)"/></g></svg>