<svg xmlns="http://www.w3.org/2000/svg" xmlns:xlink="http://www.w3.org/1999/xlink" width="84" height="64" viewBox="0 0 84 64"><defs><style>.a{fill:#016fd0;}.b{fill:#fff;}.c{filter:url(#a);}</style><filter id="a" x="0" y="0" width="84" height="64" filterUnits="userSpaceOnUse"><feOffset dy="4" input="SourceAlpha"/><feGaussianBlur stdDeviation="3" result="b"/><feFlood flood-opacity="0.161"/><feComposite operator="in" in2="b"/><feComposite in="SourceGraphic"/></filter></defs><g transform="translate(9.399 5.182)"><g class="c" transform="matrix(1, 0, 0, 1, -9.4, -5.18)"><rect class="a" width="66" height="46" rx="10" transform="translate(9 5)"/></g><g transform="translate(6.716 16.218)"><path class="b" d="M-1015.137,213.868v-4.125l-.049-.012q-.4,1.079-.8,2.158c-.205.558-.42,1.112-.608,1.676a.387.387,0,0,1-.444.306c-.38-.021-.844.1-1.119-.079-.255-.165-.319-.637-.448-.981-.375-1-.74-2.01-1.157-3.016v.292c0,1.148-.006,2.3,0,3.444,0,.249-.083.346-.327.34-.361-.008-.723-.007-1.084,0-.209,0-.3-.068-.3-.3q.012-2.822,0-5.644c0-.247.1-.311.321-.31.68.006,1.36.008,2.041,0a.359.359,0,0,1,.388.29c.409,1.149.83,2.293,1.268,3.5.163-.444.308-.835.45-1.228.275-.758.554-1.515.816-2.277a.356.356,0,0,1,.392-.283c.67.008,1.339.009,2.009,0,.245,0,.335.084.334.335q-.011,2.79,0,5.58c0,.251-.089.342-.332.338C-1014.218,213.862-1014.662,213.868-1015.137,213.868Z" transform="translate(1029.297 -207.613)"/><path class="b" d="M-441.96,211.114V208.19c0-.607,0-.607.6-.607.255,0,.511.014.765,0,.285-.02.368.106.366.375-.009,1.095,0,2.189,0,3.284,0,.744-.01,1.488,0,2.232.005.282-.1.374-.373.365-.457-.014-.914-.012-1.371,0a.515.515,0,0,1-.493-.27c-.72-1.1-1.452-2.2-2.18-3.3-.034-.052-.071-.1-.154-.221V211.7c0,.616.007,1.233-.008,1.849,0,.093-.107.26-.17.263-.5.022-.992.012-1.529.012v-.357c0-1.839.005-3.677-.006-5.516,0-.278.08-.379.358-.37.488.016.978.012,1.466,0a.493.493,0,0,1,.467.258c.666,1.011,1.341,2.016,2.014,3.023.058.088.119.174.178.261Z" transform="translate(491.016 -207.576)"/><path class="b" d="M-709.073,335.483l1.975,2.164c-.139.022-.215.04-.292.044-.138.006-.276,0-.414,0a3.686,3.686,0,0,1-1.38-.067c-.389-.18-.639-.659-.948-1.009-.259-.295-.506-.6-.778-.885a.693.693,0,0,0-.353-.161c-.224-.045-.326.057-.32.3.013.5,0,1,.006,1.5,0,.24-.072.346-.331.332-.36-.02-.722-.017-1.083,0-.242.011-.339-.06-.337-.319q.013-2.8,0-5.607c0-.243.1-.309.322-.308,1.115.007,2.23-.01,3.345.008a2.02,2.02,0,0,1,2.174,2.041,1.957,1.957,0,0,1-1.246,1.834Zm-1.491-1.394h.637c.032,0,.064,0,.1,0,.4-.025.6-.215.593-.558a.553.553,0,0,0-.6-.559c-.308-.011-.616,0-.924,0-.888,0-.884,0-.817.882.013.176.08.247.253.244C-711.074,334.085-710.819,334.089-710.564,334.089Z" transform="translate(740.817 -323.557)"/><path class="b" d="M-775.24,211.727l1.958,2.146c-.077.036-.119.073-.161.073-.584.006-1.169.016-1.753,0a.514.514,0,0,1-.31-.184c-.516-.579-1.02-1.169-1.533-1.751a.589.589,0,0,0-.243-.188c-.356-.1-.474,0-.475.372,0,.489-.007.978,0,1.466,0,.2-.052.3-.263.3-.4-.005-.808,0-1.211,0-.17,0-.241-.072-.241-.251q.007-2.869,0-5.739c0-.178.071-.254.242-.252,1.274.016,2.551-.008,3.822.061a1.875,1.875,0,0,1,1.725,1.616,1.972,1.972,0,0,1-1.226,2.21C-775,211.641-775.1,211.675-775.24,211.727Zm-1.527-2.519c-1.048,0-1.048,0-.989.921,0,.021-.008.051,0,.062.057.06.118.165.18.166.541.006,1.084.019,1.623-.021a.543.543,0,0,0,.567-.6.607.607,0,0,0-.649-.531C-776.278,209.2-776.523,209.207-776.767,209.207Z" transform="translate(802.739 -207.703)"/><path class="b" d="M-877.959,210.706c0-.914.006-1.828,0-2.742,0-.266.076-.378.363-.376q2.28.016,4.56,0c.295,0,.4.1.38.393a7.081,7.081,0,0,0,0,.8c.01.233-.08.316-.316.314-.967-.01-1.935.008-2.9-.011-.291-.006-.386.091-.346.363a.676.676,0,0,1,0,.191c-.037.255.077.335.323.333.882-.009,1.765,0,2.647,0,.482,0,.482,0,.482.49,0,.213-.016.427,0,.637.026.273-.061.371-.351.365-.914-.018-1.828,0-2.742-.012-.266,0-.382.049-.368.347.029.651-.069.56.56.563.893,0,1.786.009,2.678,0,.254,0,.344.084.332.33a6.4,6.4,0,0,0,0,.8c.022.288-.106.367-.372.366-1.265-.007-2.53,0-3.795,0-.244,0-.49-.015-.733,0-.3.023-.411-.086-.406-.4C-877.949,212.535-877.959,211.62-877.959,210.706Z" transform="translate(894.953 -207.585)"/><path class="b" d="M-608.229,336.166h.341c.956,0,1.913.006,2.869,0,.258,0,.366.089.352.354-.016.3-.007.595,0,.892,0,.173-.073.244-.251.243-1.594,0-3.188-.006-4.782,0-.261,0-.262-.155-.262-.331q0-1.435,0-2.869c0-.882.006-1.764,0-2.646,0-.276.073-.394.379-.391,1.52.014,3.039.012,4.559,0,.279,0,.384.09.367.367a8.051,8.051,0,0,0,0,.829c.009.236-.09.314-.322.312q-1.451-.013-2.9,0c-.11,0-.311.061-.315.105a3.248,3.248,0,0,0,.039.716c0,.026.174.038.267.038.914,0,1.828.01,2.742,0,.281,0,.413.069.383.376a4.268,4.268,0,0,0,0,.764c.022.275-.066.372-.353.366-.861-.017-1.721-.009-2.582-.005-.6,0-.509-.071-.517.533C-608.23,335.922-608.229,336.026-608.229,336.166Z" transform="translate(644.052 -323.516)"/><path class="b" d="M-1021.5,334.556c0-.914.012-1.829-.007-2.742-.006-.305.1-.375.385-.373q2.264.016,4.528,0c.27,0,.395.068.37.358a4.126,4.126,0,0,0,0,.733c.03.316-.073.428-.405.421-.935-.021-1.871,0-2.806-.013-.276,0-.4.067-.358.355a.654.654,0,0,1,0,.191c-.035.25.066.335.319.331.914-.012,1.828.007,2.742-.011.316-.006.451.087.425.414a7.712,7.712,0,0,0,0,.8c.005.216-.083.3-.3.295-.935-.009-1.871.007-2.806-.01-.286-.005-.393.066-.379.37.024.516.005.517.527.517.893,0,1.786.006,2.679,0,.262,0,.395.065.37.359a8,8,0,0,0,0,.861c0,.182-.052.271-.253.271q-2.392-.008-4.784,0c-.245,0-.238-.143-.238-.312Q-1021.495,335.96-1021.5,334.556Z" transform="translate(1029.337 -323.538)"/><path class="b" d="M-1136.708,213.786c-.621,0-1.192.009-1.762-.01-.08,0-.183-.128-.229-.219-.131-.266-.225-.551-.364-.813a.391.391,0,0,0-.277-.186c-.786-.015-1.573-.016-2.358,0a.423.423,0,0,0-.3.2c-.135.251-.222.527-.344.787-.041.087-.125.218-.192.22-.577.018-1.155.01-1.773.01.052-.142.078-.232.115-.316.813-1.845,1.634-3.686,2.435-5.536a.537.537,0,0,1,.6-.381c.487.024.978-.008,1.465.017a.491.491,0,0,1,.362.22c.86,1.916,1.7,3.84,2.55,5.763A2.2,2.2,0,0,1-1136.708,213.786Zm-4.6-2.7h1.566l-.782-1.868Z" transform="translate(1144.303 -207.543)"/><path class="b" d="M-569.674,213.82c.1-.235.157-.391.224-.543.787-1.787,1.58-3.571,2.359-5.361a.481.481,0,0,1,.522-.35c.509.02,1.021-.009,1.529.017a.489.489,0,0,1,.361.22c.866,1.926,1.714,3.859,2.565,5.792a1.664,1.664,0,0,1,.052.225c-.372,0-.717,0-1.061,0-1.041-.015-.755.127-1.159-.768-.263-.582-.125-.473-.732-.48-.659-.008-1.318.008-1.976-.007-.218,0-.344.062-.392.272a.416.416,0,0,1-.023.059c-.383.924-.383.924-1.4.924Zm3.8-4.588-.778,1.87h1.561Z" transform="translate(606.325 -207.564)"/><path class="b" d="M-417.691,331.5c-.216.471-.4.9-.613,1.309a.457.457,0,0,1-.346.14c-.807.012-1.615-.008-2.422.019a.683.683,0,0,0-.492.255c-.17.272.044.577.391.59.5.018,1,0,1.5.012a3.916,3.916,0,0,1,.726.076,1.653,1.653,0,0,1,1.358,1.491,1.9,1.9,0,0,1-.881,1.942,2.7,2.7,0,0,1-1.111.33c-1.093.044-2.188.013-3.282.022-.221,0-.306-.073-.3-.295a6.543,6.543,0,0,0,0-.828c-.023-.285.1-.371.364-.369.882.009,1.764,0,2.645,0,.128,0,.255,0,.382-.008.268-.015.447-.129.448-.426,0-.272-.158-.432-.472-.441-.393-.012-.786,0-1.179-.008a6.027,6.027,0,0,1-.981-.073,1.705,1.705,0,0,1-1.388-1.58,1.855,1.855,0,0,1,1.11-1.964,2.932,2.932,0,0,1,1.015-.229c1.083-.029,2.167-.012,3.251-.01A2.285,2.285,0,0,1-417.691,331.5Z" transform="translate(469.339 -323.55)"/><path class="b" d="M-511.826,331.478c-.236.513-.423.949-.642,1.368-.041.078-.212.124-.323.125-.765.011-1.53.006-2.295.006a1.74,1.74,0,0,0-.286.008.412.412,0,0,0-.4.42.4.4,0,0,0,.419.428c.488.014.977,0,1.466.014a4.247,4.247,0,0,1,.789.081,1.559,1.559,0,0,1,1.314,1.307,1.956,1.956,0,0,1-.717,2.048,2.072,2.072,0,0,1-1.248.417c-1.083.01-2.167,0-3.251.011-.246,0-.314-.087-.3-.316a6.238,6.238,0,0,0,0-.828c-.021-.269.086-.352.343-.349.882.01,1.763,0,2.645,0,.117,0,.234,0,.35-.005.328-.022.493-.164.5-.421s-.187-.443-.506-.451-.659,0-.988,0c-.2,0-.4,0-.606,0a1.8,1.8,0,0,1-1.918-1.581,1.877,1.877,0,0,1,1.658-2.208,22.351,22.351,0,0,1,2.257-.069C-513.017,331.471-512.467,331.478-511.826,331.478Z" transform="translate(557.471 -323.57)"/><path class="b" d="M-932.18,333.276c.485-.563.934-1.1,1.407-1.616a.729.729,0,0,1,.453-.214c.5-.027,1-.011,1.5-.009.1,0,.2.018.387.036l-2.671,3.013,2.74,3.118a1.333,1.333,0,0,1-.243.057c-.574,0-1.148.017-1.721-.008a.68.68,0,0,1-.417-.223c-.489-.542-.959-1.1-1.461-1.684-.484.562-.956,1.092-1.4,1.641a.7.7,0,0,1-.625.282c-.561-.02-1.123-.006-1.684-.006l-.055-.077,2.7-3.062-2.7-3.046c.164-.02.252-.04.34-.04.531,0,1.063-.018,1.593.009a.725.725,0,0,1,.453.214C-933.113,332.177-932.665,332.715-932.18,333.276Z" transform="translate(949.265 -323.529)"/><path class="b" d="M-815.047,334.542c0-.914.007-1.827,0-2.741,0-.273.089-.371.37-.367,1.1.013,2.21-.008,3.314.009a2.1,2.1,0,0,1,1.953,3.133,2.124,2.124,0,0,1-1.953,1.1c-.552.022-1.1.014-1.657,0-.228-.005-.292.078-.287.3.013.478,0,.956.006,1.434,0,.19-.067.268-.261.262-.308-.01-.616,0-.924,0-.558,0-.558,0-.558-.575Q-815.048,335.816-815.047,334.542Zm2.774-.36v0c.254,0,.509.008.763,0a.562.562,0,0,0,.6-.6.575.575,0,0,0-.6-.636c-.286-.013-.572,0-.859,0-.995,0-.991,0-.941,1,.009.176.063.248.242.243C-812.8,334.176-812.538,334.182-812.273,334.182Z" transform="translate(836.052 -323.532)"/><path class="b" d="M-632.913,212.4c-.242.508-.445.948-.664,1.379a.286.286,0,0,1-.217.1,4,4,0,0,1-1.9-.314,2.534,2.534,0,0,1-1.352-1.574,3.849,3.849,0,0,1,.01-2.442,2.614,2.614,0,0,1,2.365-1.848c.748-.076,1.506-.04,2.26-.062.238-.007.318.1.307.326-.013.3-.015.6,0,.892.012.247-.077.343-.329.336-.52-.013-1.041-.007-1.562,0a1.357,1.357,0,0,0-1.491,1.51,2.667,2.667,0,0,0,.024.508,1.38,1.38,0,0,0,1.494,1.192C-633.646,212.41-633.329,212.4-632.913,212.4Z" transform="translate(669.578 -207.633)"/><path class="b" d="M-676.373,210.7c0-.914.012-1.828-.007-2.741-.006-.316.107-.411.4-.394.339.019.68.011,1.02,0,.227-.006.327.079.327.315q-.007,2.821,0,5.642c0,.2-.077.293-.28.291-.393,0-.786-.005-1.179,0-.22,0-.29-.1-.288-.311C-676.368,212.574-676.373,211.639-676.373,210.7Z" transform="translate(706.226 -207.565)"/></g></g></svg>