<svg xmlns="http://www.w3.org/2000/svg" xmlns:xlink="http://www.w3.org/1999/xlink" width="23" height="23" viewBox="0 0 23 23"><defs><style>.a{fill:url(#a);}.b{fill:#fff;}</style><linearGradient id="a" y1="0.5" x2="1" y2="0.5" gradientUnits="objectBoundingBox"><stop offset="0" stop-color="#00aae9"/><stop offset="1" stop-color="#61d2e5"/></linearGradient></defs><rect class="a" width="23" height="23" rx="5"/><path class="b" d="M1.133,3.375A1.133,1.133,0,1,0,2.266,4.508,1.133,1.133,0,0,0,1.133,3.375Zm0,3.777A1.133,1.133,0,1,0,2.266,8.286,1.133,1.133,0,0,0,1.133,7.152Zm0,3.777a1.133,1.133,0,1,0,1.133,1.133A1.133,1.133,0,0,0,1.133,10.93Zm10.577.378H4.155a.378.378,0,0,0-.378.378v.755a.378.378,0,0,0,.378.378H11.71a.378.378,0,0,0,.378-.378v-.755A.378.378,0,0,0,11.71,11.308Zm0-7.555H4.155a.378.378,0,0,0-.378.378v.755a.378.378,0,0,0,.378.378H11.71a.378.378,0,0,0,.378-.378V4.13A.378.378,0,0,0,11.71,3.753Zm0,3.777H4.155a.378.378,0,0,0-.378.378v.755a.378.378,0,0,0,.378.378H11.71a.378.378,0,0,0,.378-.378V7.908A.378.378,0,0,0,11.71,7.53Z" transform="translate(5.546 3.13)"/></svg>