<svg xmlns="http://www.w3.org/2000/svg" xmlns:xlink="http://www.w3.org/1999/xlink" width="50" height="50" viewBox="0 0 50 50"><defs><style>.a{fill:url(#a);}.b{fill:#fff;}</style><linearGradient id="a" y1="0.5" x2="1" y2="0.5" gradientUnits="objectBoundingBox"><stop offset="0" stop-color="#00aae9"/><stop offset="1" stop-color="#61d2e5"/></linearGradient></defs><rect class="a" width="50" height="50" rx="10.25"/><path class="b" d="M2.444,3.375A2.444,2.444,0,1,0,4.889,5.819,2.444,2.444,0,0,0,2.444,3.375Zm0,8.148a2.444,2.444,0,1,0,2.444,2.444A2.444,2.444,0,0,0,2.444,11.523Zm0,8.148a2.444,2.444,0,1,0,2.444,2.444,2.444,2.444,0,0,0-2.444-2.444Zm22.815.815H8.963a.815.815,0,0,0-.815.815v1.63a.815.815,0,0,0,.815.815h16.3a.815.815,0,0,0,.815-.815V21.3A.815.815,0,0,0,25.259,20.486Zm0-16.3H8.963A.815.815,0,0,0,8.148,5v1.63a.815.815,0,0,0,.815.815h16.3a.815.815,0,0,0,.815-.815V5A.815.815,0,0,0,25.259,4.19Zm0,8.148H8.963a.815.815,0,0,0-.815.815v1.63a.815.815,0,0,0,.815.815h16.3a.815.815,0,0,0,.815-.815v-1.63A.815.815,0,0,0,25.259,12.338Z" transform="translate(11.963 10.657)"/></svg>