<svg xmlns="http://www.w3.org/2000/svg" xmlns:xlink="http://www.w3.org/1999/xlink" width="50" height="50" viewBox="0 0 50 50"><defs><style>.a{fill:url(#a);}.b{fill:#fff;}</style><linearGradient id="a" y1="0.5" x2="1" y2="0.5" gradientUnits="objectBoundingBox"><stop offset="0" stop-color="#00aae9"/><stop offset="1" stop-color="#61d2e5"/></linearGradient></defs><g transform="translate(0 -0.188)"><rect class="a" width="50" height="50" rx="10.25" transform="translate(0 0.188)"/><g transform="translate(16.46 10.087)"><path class="b" d="M608.845,935.532a13.923,13.923,0,0,1-3.509-1.062,10.456,10.456,0,0,1-2.824-1.833l1.535-2.222a1.571,1.571,0,0,1,.521-.456,1.39,1.39,0,0,1,.7-.183,1.744,1.744,0,0,1,.783.2q.4.2.873.487t1.03.583a5.989,5.989,0,0,0,1.281.488l.592-6.046q-1.154-.318-2.287-.753a7.437,7.437,0,0,1-2.047-1.171,5.587,5.587,0,0,1-1.481-1.878,6.377,6.377,0,0,1-.566-2.857,6.258,6.258,0,0,1,.51-2.472,6.751,6.751,0,0,1,1.495-2.168,7.856,7.856,0,0,1,2.424-1.58,8.268,8.268,0,0,1,3.295-.619l.175-1.8a1.379,1.379,0,0,1,.4-.82,1.214,1.214,0,0,1,.913-.367h1.824l-.321,3.151a9.46,9.46,0,0,1,2.976,1.033,10.853,10.853,0,0,1,2.109,1.526l-1.214,1.776a2.1,2.1,0,0,1-.552.583,1.179,1.179,0,0,1-.664.184,1.751,1.751,0,0,1-.575-.113c-.214-.073-.447-.167-.7-.279l-.824-.36a7.845,7.845,0,0,0-.935-.335l-.56,5.676q.768.225,1.534.49a13.079,13.079,0,0,1,1.481.605,8.793,8.793,0,0,1,1.326.794,5.033,5.033,0,0,1,1.073,1.054,4.715,4.715,0,0,1,.71,1.4,5.84,5.84,0,0,1,.256,1.8,7.946,7.946,0,0,1-.51,2.855,6.894,6.894,0,0,1-1.5,2.359,7.83,7.83,0,0,1-2.432,1.673,9.842,9.842,0,0,1-3.294.791l-.192,2a1.337,1.337,0,0,1-.4.808,1.223,1.223,0,0,1-.912.358h-1.822Zm-.735-17.159a2.032,2.032,0,0,0,.6,1.526,4.839,4.839,0,0,0,1.576.985l.479-4.831a5.02,5.02,0,0,0-1.239.329,2.674,2.674,0,0,0-.816.519,1.881,1.881,0,0,0-.457.681A2.206,2.206,0,0,0,608.11,918.373Zm6.78,10.347a1.892,1.892,0,0,0-.583-1.455,4.7,4.7,0,0,0-1.543-.912l-.512,5.276A2.754,2.754,0,0,0,614.89,928.72Z" transform="translate(-602.512 -909)"/></g></g></svg>