<svg xmlns="http://www.w3.org/2000/svg" xmlns:xlink="http://www.w3.org/1999/xlink" width="44.784" height="44.784" viewBox="0 0 44.784 44.784"><defs><style>.a{fill:#eaeaea;}.b{fill:url(#a);}.c{fill:url(#c);}</style><linearGradient id="a" x1="0.5" y1="1" x2="0.5" gradientUnits="objectBoundingBox"><stop offset="0" stop-color="#ff545d"/><stop offset="1" stop-color="#f76d4d"/></linearGradient><linearGradient id="c" x1="0.5" y1="1" x2="0.5" y2="0" xlink:href="#a"/></defs><ellipse class="a" cx="22.392" cy="22.392" rx="22.392" ry="22.392" transform="translate(0 0)"/><g transform="translate(11.012 16.875)"><ellipse class="b" cx="2.134" cy="2.134" rx="2.134" ry="2.134"/><ellipse class="b" cx="2.134" cy="2.134" rx="2.134" ry="2.134" transform="translate(18.493)"/><g transform="translate(6.876 8.29)"><path class="c" d="M250.036,564.865a5.787,5.787,0,0,1-3.919-1.763,1.351,1.351,0,1,1,1.839-1.979c1.476,1.371,2.681,1.374,4.159,0a1.351,1.351,0,1,1,1.839,1.979A5.787,5.787,0,0,1,250.036,564.865Z" transform="translate(-245.685 -560.764)"/></g></g></svg>