<svg xmlns="http://www.w3.org/2000/svg" xmlns:xlink="http://www.w3.org/1999/xlink" width="44.784" height="44.784" viewBox="0 0 44.784 44.784"><defs><style>.a{fill:#eaeaea;}.b{fill:url(#a);}</style><linearGradient id="a" x1="0.5" y1="1" x2="0.5" gradientUnits="objectBoundingBox"><stop offset="0" stop-color="#ff545d"/><stop offset="1" stop-color="#f76d4d"/></linearGradient></defs><ellipse class="a" cx="22.392" cy="22.392" rx="22.392" ry="22.392"/><g transform="translate(15.442 10.256)"><path class="b" d="M66.953,629.611a11.279,11.279,0,0,1-2.856-.865,8.5,8.5,0,0,1-2.3-1.49l1.25-1.809a1.281,1.281,0,0,1,.424-.372,1.129,1.129,0,0,1,.566-.149,1.4,1.4,0,0,1,.636.163q.326.162.711.4t.839.474a4.9,4.9,0,0,0,1.042.4l.481-4.92q-.938-.259-1.86-.613a6.03,6.03,0,0,1-1.666-.952,4.541,4.541,0,0,1-1.2-1.528,5.2,5.2,0,0,1-.461-2.325,5.1,5.1,0,0,1,.415-2.012,5.484,5.484,0,0,1,1.217-1.764,6.4,6.4,0,0,1,1.972-1.286,6.741,6.741,0,0,1,2.68-.5l.143-1.467a1.123,1.123,0,0,1,.326-.667.982.982,0,0,1,.742-.3h1.485l-.261,2.564a7.714,7.714,0,0,1,2.421.84,8.831,8.831,0,0,1,1.717,1.243l-.987,1.445a1.739,1.739,0,0,1-.45.474.963.963,0,0,1-.54.149,1.42,1.42,0,0,1-.467-.091c-.174-.059-.365-.136-.573-.228s-.432-.188-.671-.293a6.447,6.447,0,0,0-.761-.271l-.457,4.619q.626.182,1.25.4a10.75,10.75,0,0,1,1.2.493,7.043,7.043,0,0,1,1.079.646,4.1,4.1,0,0,1,.873.856A3.863,3.863,0,0,1,75.49,622a4.8,4.8,0,0,1,.208,1.464,6.475,6.475,0,0,1-.415,2.324,5.614,5.614,0,0,1-1.224,1.92,6.377,6.377,0,0,1-1.979,1.36,8.007,8.007,0,0,1-2.681.644l-.155,1.626a1.091,1.091,0,0,1-.326.658,1,1,0,0,1-.742.292H66.693Zm-.6-13.963a1.661,1.661,0,0,0,.488,1.243,3.986,3.986,0,0,0,1.283.8l.39-3.931a4.09,4.09,0,0,0-1.009.267,2.21,2.21,0,0,0-.665.422,1.537,1.537,0,0,0-.37.554A1.781,1.781,0,0,0,66.354,615.648Zm5.517,8.42a1.54,1.54,0,0,0-.474-1.185,3.843,3.843,0,0,0-1.255-.742l-.417,4.293A2.24,2.24,0,0,0,71.871,624.068Z" transform="translate(-61.799 -608.021)"/></g></svg>