<svg xmlns="http://www.w3.org/2000/svg" xmlns:xlink="http://www.w3.org/1999/xlink" width="84" height="64" viewBox="0 0 84 64"><defs><style>.a{fill:url(#a);}.b{fill:#fff;}.c{filter:url(#b);}</style><linearGradient id="a" y1="0.5" x2="1" y2="0.5" gradientUnits="objectBoundingBox"><stop offset="0" stop-color="#26449c"/><stop offset="1" stop-color="#222a68"/></linearGradient><filter id="b" x="0" y="0" width="84" height="64" filterUnits="userSpaceOnUse"><feOffset dy="4" input="SourceAlpha"/><feGaussianBlur stdDeviation="3" result="c"/><feFlood flood-opacity="0.161"/><feComposite operator="in" in2="c"/><feComposite in="SourceGraphic"/></filter></defs><g transform="translate(9.447 5.182)"><g class="c" transform="matrix(1, 0, 0, 1, -9.45, -5.18)"><rect class="a" width="66" height="46" rx="10" transform="translate(9 5)"/></g><path class="b" d="M32.467,13.043a9.289,9.289,0,0,0-3.238-.56c-3.573,0-6.1,1.8-6.114,4.383-.022,1.9,1.794,2.967,3.166,3.6,1.409.651,1.88,1.061,1.876,1.647-.009.888-1.126,1.29-2.163,1.29a7.65,7.65,0,0,1-3.408-.7l-.445-.207-.5,2.974a12.094,12.094,0,0,0,4.048.7c3.8,0,6.281-1.789,6.311-4.539.03-1.513-.949-2.661-3.017-3.607-1.254-.614-2.036-1.025-2.036-1.649,0-.551.668-1.139,2.064-1.139a6.626,6.626,0,0,1,2.708.508l.335.151.5-2.874-.087.019Zm9.274-.316H38.949a1.806,1.806,0,0,0-1.9,1.1L31.68,25.987h3.8L36.238,24l4.634,0c.114.465.447,1.988.447,1.988h3.348Zm-23.763-.112h3.616L19.333,25.883H15.715l2.263-13.272ZM8.786,19.927l.376,1.842L12.7,12.727h3.832l-5.7,13.242H7.013L3.886,14.754a.741.741,0,0,0-.335-.441A15.282,15.282,0,0,0,0,13l.047-.279H5.874a1.514,1.514,0,0,1,1.643,1.124l1.269,6.091v-.006Zm28.49,1.353,1.442-3.711c-.019.037.3-.767.48-1.266l.248,1.145.836,3.828H37.276v0Z" transform="translate(10.22 3.007)"/></g></svg>