<svg xmlns="http://www.w3.org/2000/svg" xmlns:xlink="http://www.w3.org/1999/xlink" width="50" height="50" viewBox="0 0 50 50"><defs><style>.a{fill:url(#a);}.b{fill:#fff;}</style><linearGradient id="a" y1="0.5" x2="1" y2="0.5" gradientUnits="objectBoundingBox"><stop offset="0" stop-color="#00aae9"/><stop offset="1" stop-color="#61d2e5"/></linearGradient></defs><g transform="translate(0 -0.06)"><rect class="a" width="50" height="50" rx="10.25" transform="translate(0 0.06)"/><g transform="translate(11.963 14.304)"><path class="b" d="M118.56,109.331V119.2a2.028,2.028,0,0,1-2.028,2.028H102.811l-2.719,2.718a1.268,1.268,0,0,1-2.166-.9V109.331a2.028,2.028,0,0,1,2.027-2.027h16.579A2.028,2.028,0,0,1,118.56,109.331Z" transform="translate(-97.926 -107.304)"/><path class="b" d="M124,117.825v9.946a.919.919,0,0,1-1.568.655l-1.976-1.976h-9.945a1.469,1.469,0,0,1-1.471-1.465v-.892h10.354a2.028,2.028,0,0,0,2.027-2.028v-5.71h1.109A1.472,1.472,0,0,1,124,117.825Z" transform="translate(-97.926 -107.304)"/></g></g></svg>