<svg xmlns="http://www.w3.org/2000/svg" xmlns:xlink="http://www.w3.org/1999/xlink" width="50" height="50" viewBox="0 0 50 50"><defs><style>.a{fill:url(#a);}.b{fill:#fff;}</style><linearGradient id="a" y1="0.5" x2="1" y2="0.5" gradientUnits="objectBoundingBox"><stop offset="0" stop-color="#00aae9"/><stop offset="1" stop-color="#61d2e5"/></linearGradient></defs><g transform="translate(0 -0.058)"><rect class="a" width="50" height="50" rx="10.25" transform="translate(0 0.058)"/><g transform="translate(14.5 13.5)"><g transform="translate(0 5)"><path class="b" d="M525.552,705.413a2,2,0,0,1-2-2v-9a2,2,0,0,1,4,0v9A2,2,0,0,1,525.552,705.413Z" transform="translate(-523.552 -692.413)"/></g><g transform="translate(17 5)"><path class="b" d="M542.552,705.413a2,2,0,0,1-2-2v-9a2,2,0,0,1,4,0v9A2,2,0,0,1,542.552,705.413Z" transform="translate(-540.552 -692.413)"/></g><g transform="translate(8.5)"><path class="b" d="M534.052,710.413a2,2,0,0,1-2-2v-19a2,2,0,0,1,4,0v19A2,2,0,0,1,534.052,710.413Z" transform="translate(-532.052 -687.413)"/></g></g></g></svg>