<svg xmlns="http://www.w3.org/2000/svg" xmlns:xlink="http://www.w3.org/1999/xlink" width="79.487" height="46.296" viewBox="0 0 79.487 46.296"><defs><style>.a{fill:none;}.b{clip-path:url(#a);}.c{fill:#4484d6;}.d{fill:#2fb244;}.e{fill:#fff;}</style><clipPath id="a"><rect class="a" width="79.487" height="46.296"/></clipPath></defs><g class="b"><path class="c" d="M31.318,22.276V9H2.128A2.128,2.128,0,0,0,0,11.127V40.915a2.131,2.131,0,0,0,1.219,1.924,2.158,2.158,0,0,0,.91.2,2.127,2.127,0,0,0,1.349-.483l7.183-5.9H44.68a2.128,2.128,0,0,0,2.127-2.128V25.766h-12a3.493,3.493,0,0,1-3.49-3.49" transform="translate(0 3.255)"/><path class="d" d="M68.68,0H26.128A2.128,2.128,0,0,0,24,2.127v23.4a2.127,2.127,0,0,0,2.128,2.127H60.147l7.181,5.9a2.134,2.134,0,0,0,1.352.483,2.157,2.157,0,0,0,.908-.2,2.13,2.13,0,0,0,1.217-1.925V2.127A2.127,2.127,0,0,0,68.68,0" transform="translate(8.68 0)"/><path class="e" d="M41,12.742a1.026,1.026,0,0,1,.773-.323,4,4,0,0,0,2.525-.866,2.88,2.88,0,0,0,.98-2.342,2.891,2.891,0,0,0-.9-2.177,3.069,3.069,0,0,0-2.215-.867,3.4,3.4,0,0,0-1.417.312,3.88,3.88,0,0,0-1.187.842,1.392,1.392,0,0,1-.923.417.983.983,0,0,1-.6-.208,1.05,1.05,0,0,1-.507-.852,1.062,1.062,0,0,1,.343-.761,5.555,5.555,0,0,1,1.9-1.408A5.746,5.746,0,0,1,42.164,4a5.436,5.436,0,0,1,2.687.67,5.065,5.065,0,0,1,2.642,4.541A4.764,4.764,0,0,1,45.208,13.4a5.572,5.572,0,0,1-2.4.794c-.015,0-.019.005-.012.014s.026,0,.059-.014v1.522a1.1,1.1,0,0,1-.312.786,1.029,1.029,0,0,1-.772.321,1.058,1.058,0,0,1-.8-.321,1.01,1.01,0,0,1-.287-.786V13.549a1.109,1.109,0,0,1,.31-.807m-.15,7.967a1.193,1.193,0,0,1-.3-.863v-.438a1.2,1.2,0,0,1,.3-.865,1.124,1.124,0,0,1,.854-.312h.23a1.128,1.128,0,0,1,.854.312,1.2,1.2,0,0,1,.3.865v.438a1.193,1.193,0,0,1-.3.863,1.128,1.128,0,0,1-.854.312H41.7a1.124,1.124,0,0,1-.854-.312" transform="translate(13.573 1.447)"/><path class="e" d="M16.505,29.272a1.319,1.319,0,0,1-.309-.929v-.471a1.316,1.316,0,0,1,.309-.929,1.175,1.175,0,0,1,.905-.335h.272a1.172,1.172,0,0,1,.9.335,1.316,1.316,0,0,1,.309.929v.471a1.319,1.319,0,0,1-.309.929,1.171,1.171,0,0,1-.9.334h-.272a1.174,1.174,0,0,1-.905-.334m.31-5.66-.545-9.86a1.4,1.4,0,0,1,.309-1.065,1.3,1.3,0,0,1,1.92,0,1.444,1.444,0,0,1,.3,1.065l-.52,9.86a.926.926,0,0,1-.21.6.664.664,0,0,1-.508.2q-.694,0-.743-.792" transform="translate(5.857 4.436)"/></g></svg>