<svg xmlns="http://www.w3.org/2000/svg" xmlns:xlink="http://www.w3.org/1999/xlink" width="84.333" height="54.23" viewBox="0 0 84.333 54.23"><defs><style>.a{fill:url(#a);}.b{fill:url(#b);}.c{fill:#fff;}</style><linearGradient id="a" x1="0.5" y1="1" x2="0.5" gradientUnits="objectBoundingBox"><stop offset="0" stop-color="#00aae9"/><stop offset="1" stop-color="#61d2e5"/></linearGradient><linearGradient id="b" x1="0.5" y1="1" x2="0.5" gradientUnits="objectBoundingBox"><stop offset="0" stop-color="#ff545d"/><stop offset="1" stop-color="#f76d4d"/></linearGradient></defs><g transform="translate(-527.102 -218)"><path class="a" d="M577.867,220.913v16.641a2.913,2.913,0,0,1-2.913,2.917H545.32c.046,5.407-6.425,7.348-6.425,7.348,2.219-3.327.1-7.348.1-7.348h-8.975a2.916,2.916,0,0,1-2.917-2.917V220.913A2.915,2.915,0,0,1,530.019,218h44.935A2.913,2.913,0,0,1,577.867,220.913Z"/><path class="b" d="M662.32,311.563v15.851a3.311,3.311,0,0,1-3.312,3.308H634.943s-2.12,4.024.1,7.351c0,0-6.472-1.941-6.425-7.351H600.162a3.309,3.309,0,0,1-3.308-3.308V311.563a3.309,3.309,0,0,1,3.308-3.308h58.847A3.311,3.311,0,0,1,662.32,311.563Z" transform="translate(-50.885 -65.843)"/><g transform="translate(532.754 223.698)"><path class="c" d="M556.377,249.243a.489.489,0,0,1-.277.44,5.918,5.918,0,0,1-2.543.457,5.5,5.5,0,0,1-3.965-1.53A5.25,5.25,0,0,1,548,244.644a5.316,5.316,0,0,1,5.576-5.576,5.869,5.869,0,0,1,2.527.457.489.489,0,0,1,.277.44v1.294a.482.482,0,0,1-.67.445,5.109,5.109,0,0,0-2.006-.392,2.921,2.921,0,0,0-2.179.905,3.331,3.331,0,0,0-.881,2.428,3.177,3.177,0,0,0,.881,2.363,3.094,3.094,0,0,0,2.276.873,4.6,4.6,0,0,0,1.892-.375.484.484,0,0,1,.688.437Z" transform="translate(-547.997 -239.068)"/><path class="c" d="M594.217,250.4H592.7a.484.484,0,0,1-.484-.484v-3.341a.485.485,0,0,0-.484-.484h-2.989a.484.484,0,0,0-.484.484v3.341a.484.484,0,0,1-.484.484h-1.5a.484.484,0,0,1-.484-.484v-9.831a.484.484,0,0,1,.484-.484h1.5a.484.484,0,0,1,.484.484v3.421a.484.484,0,0,0,.484.484h2.989a.484.484,0,0,0,.484-.484v-3.421a.484.484,0,0,1,.484-.484h1.515a.484.484,0,0,1,.484.484v9.831A.484.484,0,0,1,594.217,250.4Z" transform="translate(-575.57 -239.457)"/><path class="c" d="M626.667,250.4h-1.546a.484.484,0,0,1-.459-.638l3.282-9.831a.484.484,0,0,1,.459-.331h2.41a.484.484,0,0,1,.46.331l3.282,9.831a.484.484,0,0,1-.46.638h-1.61a.485.485,0,0,1-.464-.346l-.451-1.518a.484.484,0,0,0-.464-.346h-3.059a.484.484,0,0,0-.464.346l-.451,1.518A.485.485,0,0,1,626.667,250.4Zm1.724-4.582-.112.385h2.6l-.112-.385q-.465-1.57-.761-2.676t-.36-1.426l-.064-.321A45.558,45.558,0,0,1,628.39,245.818Z" transform="translate(-603.907 -239.457)"/><path class="c" d="M672.5,241.588h-1.659a.484.484,0,0,0-.484.484v7.844a.484.484,0,0,1-.484.484h-1.515a.484.484,0,0,1-.484-.484v-7.844a.484.484,0,0,0-.484-.484h-1.675a.484.484,0,0,1-.484-.484v-1.018a.484.484,0,0,1,.484-.484H672.5a.485.485,0,0,1,.484.484V241.1A.484.484,0,0,1,672.5,241.588Z" transform="translate(-633.522 -239.457)"/></g><g transform="translate(551.197 248.11)"><path class="c" d="M624.566,339.5a.488.488,0,0,1-.277.44,5.917,5.917,0,0,1-2.543.457,5.5,5.5,0,0,1-3.965-1.53,5.249,5.249,0,0,1-1.595-3.966,5.316,5.316,0,0,1,5.576-5.576,5.864,5.864,0,0,1,2.527.457.489.489,0,0,1,.277.44v1.294a.482.482,0,0,1-.67.445,5.11,5.11,0,0,0-2.006-.392,2.921,2.921,0,0,0-2.179.906,3.331,3.331,0,0,0-.881,2.427,3.177,3.177,0,0,0,.881,2.363,3.1,3.1,0,0,0,2.276.873,4.6,4.6,0,0,0,1.892-.375.484.484,0,0,1,.688.437Z" transform="translate(-616.186 -329.321)"/><path class="c" d="M654.218,340.654h-1.546a.484.484,0,0,1-.459-.638l3.282-9.831a.484.484,0,0,1,.46-.331h2.41a.484.484,0,0,1,.46.331l3.282,9.831a.484.484,0,0,1-.459.638h-1.61a.484.484,0,0,1-.464-.346l-.451-1.518a.485.485,0,0,0-.464-.346H655.6a.485.485,0,0,0-.464.346l-.451,1.518A.484.484,0,0,1,654.218,340.654Zm1.723-4.583-.112.385h2.6l-.112-.385q-.465-1.57-.761-2.676t-.361-1.426l-.064-.32A45.409,45.409,0,0,1,655.941,336.071Z" transform="translate(-642.45 -329.71)"/><path class="c" d="M696.839,340.654h-1.5a.484.484,0,0,1-.484-.484v-9.831a.484.484,0,0,1,.484-.484h3.249a4.255,4.255,0,0,1,2.908.961,3.167,3.167,0,0,1,1.1,2.5,3.2,3.2,0,0,1-1.511,2.947.489.489,0,0,0-.165.688l1.949,2.952a.484.484,0,0,1-.4.751h-1.78a.484.484,0,0,1-.411-.228l-2.055-3.293a.484.484,0,0,0-.411-.228h0a.484.484,0,0,0-.484.484v2.781A.484.484,0,0,1,696.839,340.654Zm1.7-8.8h-.733a.484.484,0,0,0-.484.484v2.076a.484.484,0,0,0,.484.484h.685a1.582,1.582,0,0,0,1.186-2.652A1.593,1.593,0,0,0,698.541,331.857Z" transform="translate(-673.578 -329.71)"/><path class="c" d="M736.426,331.841h-1.659a.484.484,0,0,0-.484.484v7.844a.484.484,0,0,1-.484.484h-1.515a.484.484,0,0,1-.484-.484v-7.844a.484.484,0,0,0-.484-.484h-1.675a.484.484,0,0,1-.484-.484v-1.018a.484.484,0,0,1,.484-.484h6.786a.484.484,0,0,1,.484.484v1.018A.484.484,0,0,1,736.426,331.841Z" transform="translate(-698.6 -329.71)"/><path class="c" d="M769.684,340.654h-5.745a.484.484,0,0,1-.484-.484v-9.831a.484.484,0,0,1,.484-.484h5.681a.484.484,0,0,1,.484.484v1a.484.484,0,0,1-.484.484h-3.2a.484.484,0,0,0-.484.484v1.483a.484.484,0,0,0,.484.484h2.749a.484.484,0,0,1,.484.484v.986a.484.484,0,0,1-.484.484h-2.749a.484.484,0,0,0-.484.484V338.2a.484.484,0,0,0,.484.484h3.261a.484.484,0,0,1,.484.484v1A.484.484,0,0,1,769.684,340.654Z" transform="translate(-723.622 -329.71)"/><path class="c" d="M801.655,340.654h-5.488a.484.484,0,0,1-.484-.484v-9.831a.484.484,0,0,1,.484-.484h1.5a.485.485,0,0,1,.484.484v7.667a.484.484,0,0,0,.484.484h3.021a.484.484,0,0,1,.484.484v1.194A.484.484,0,0,1,801.655,340.654Z" transform="translate(-747.133 -329.71)"/></g></g></svg>