<svg xmlns="http://www.w3.org/2000/svg" xmlns:xlink="http://www.w3.org/1999/xlink" width="41.3" height="53.264" viewBox="0 0 41.3 53.264"><defs><style>.a{fill:none;}.b{clip-path:url(#a);}.c{fill:#d6d8d6;}.d{fill:#c6c6c6;}.e{fill:#474747;}</style><clipPath id="a"><rect class="a" width="41.3" height="53.264"/></clipPath></defs><g class="b"><path class="c" d="M26.081,0H4.03A4.03,4.03,0,0,0,0,4.031v45.2a4.031,4.031,0,0,0,4.03,4.031h33.24A4.031,4.031,0,0,0,41.3,49.235V15.219H28.42a2.338,2.338,0,0,1-2.339-2.338Z" transform="translate(0 0)"/><path class="d" d="M21.8,0V12.686a2.533,2.533,0,0,0,2.533,2.533H37.018Z" transform="translate(4.282 0)"/><path class="e" d="M28.8,20.723H6.373a1.2,1.2,0,1,1,0-2.393H28.8a1.2,1.2,0,1,1,0,2.393" transform="translate(1.017 3.6)"/><path class="e" d="M33.892,28.723H6.373a1.2,1.2,0,1,1,0-2.393H33.892a1.2,1.2,0,1,1,0,2.393" transform="translate(1.017 5.172)"/><path class="e" d="M33.892,36.723H6.373a1.2,1.2,0,1,1,0-2.393H33.892a1.2,1.2,0,1,1,0,2.393" transform="translate(1.017 6.743)"/><path class="e" d="M10.147,11.314a2.846,2.846,0,0,1-1.516.744v.9a.514.514,0,0,1-.534.534.506.506,0,0,1-.372-.151.515.515,0,0,1-.15-.383V12.08A3.791,3.791,0,0,1,6.409,11.8a3.447,3.447,0,0,1-1-.666.588.588,0,0,1-.233-.455.506.506,0,0,1,.156-.361.493.493,0,0,1,.366-.162.465.465,0,0,1,.322.122,3.054,3.054,0,0,0,.733.523,2.724,2.724,0,0,0,.822.255V8.493a3.5,3.5,0,0,1-1.632-.772,1.869,1.869,0,0,1-.567-1.438,1.9,1.9,0,0,1,.605-1.449,2.74,2.74,0,0,1,1.594-.7V3.563a.51.51,0,0,1,.156-.384.54.54,0,0,1,.388-.15.5.5,0,0,1,.369.15.534.534,0,0,1,.144.384V4.15a3.68,3.68,0,0,1,.967.279,2.584,2.584,0,0,1,.743.488.636.636,0,0,1,.255.477.5.5,0,0,1-.148.355.483.483,0,0,1-.363.156.368.368,0,0,1-.254-.089,2.084,2.084,0,0,0-.523-.366,2.78,2.78,0,0,0-.677-.245V7.671a3.615,3.615,0,0,1,1.588.772A1.918,1.918,0,0,1,10.74,9.9a1.892,1.892,0,0,1-.593,1.411M6.726,6.956a2.231,2.231,0,0,0,.849.449V5.161a1.569,1.569,0,0,0-.839.378.984.984,0,0,0-.011,1.417M9.386,10.6a.88.88,0,0,0,.29-.656A1.056,1.056,0,0,0,9.4,9.242a1.974,1.974,0,0,0-.772-.471V11a1.674,1.674,0,0,0,.755-.4" transform="translate(1.017 0.595)"/></g></svg>