<svg xmlns="http://www.w3.org/2000/svg" width="51" height="50.121" viewBox="0 0 51 50.121"><defs><style>.a{fill:#f2f2f2;}.b{fill:#f55;}.c{fill:#fff;}.d{fill:#c4c4c4;}.e{fill:#4c4c4c;}</style></defs><g transform="translate(-967 -251)"><rect class="a" width="51" height="45" rx="5.945" transform="translate(967 256.121)"/><path class="b" d="M5.946,0H45.054A5.946,5.946,0,0,1,51,5.946V12a0,0,0,0,1,0,0H0a0,0,0,0,1,0,0V5.946A5.946,5.946,0,0,1,5.946,0Z" transform="translate(967 256.121)"/><g transform="translate(984.591 258.313)"><path class="c" d="M987.174,266.767a.4.4,0,0,1-.168-.348q0-.412.453-.444l.328-.021a.979.979,0,0,0,.738-.3,1.322,1.322,0,0,0,.244-.881v-4.907a.564.564,0,0,1,.95-.4.55.55,0,0,1,.148.4v4.907a2.156,2.156,0,0,1-.47,1.5,1.983,1.983,0,0,1-1.41.565l-.327.02A.762.762,0,0,1,987.174,266.767Z" transform="translate(-987.006 -259.317)"/><path class="c" d="M996.453,262a.5.5,0,0,1,.142.379v4.295a.465.465,0,0,1-.148.359.551.551,0,0,1-.39.137.5.5,0,0,1-.359-.131.471.471,0,0,1-.137-.354v-.4a1.642,1.642,0,0,1-.67.675,1.968,1.968,0,0,1-.955.232q-1.877,0-1.877-2.068v-2.743A.5.5,0,0,1,992.2,262a.549.549,0,0,1,.4-.138.531.531,0,0,1,.385.138.5.5,0,0,1,.143.379v2.734a1.387,1.387,0,0,0,.253.918.97.97,0,0,0,.78.3,1.3,1.3,0,0,0,1-.4,1.5,1.5,0,0,0,.375-1.065v-2.481a.5.5,0,0,1,.148-.375.542.542,0,0,1,.39-.142A.536.536,0,0,1,996.453,262Z" transform="translate(-987.616 -259.624)"/><path class="c" d="M1003.531,263.916v2.743a.488.488,0,0,1-.142.375.562.562,0,0,1-.395.131.534.534,0,0,1-.386-.137.489.489,0,0,1-.142-.369v-2.691a1.472,1.472,0,0,0-.259-.96,1,1,0,0,0-.807-.306,1.381,1.381,0,0,0-1.034.4,1.483,1.483,0,0,0-.39,1.076v2.48a.486.486,0,0,1-.142.369.53.53,0,0,1-.385.137.551.551,0,0,1-.39-.137.477.477,0,0,1-.148-.369v-4.294a.477.477,0,0,1,.153-.365.548.548,0,0,1,.385-.142.5.5,0,0,1,.369.138.484.484,0,0,1,.138.358v.433a1.71,1.71,0,0,1,.706-.707,2.148,2.148,0,0,1,1.024-.243Q1003.531,261.837,1003.531,263.916Z" transform="translate(-988.443 -259.621)"/></g><g transform="translate(981.524 275.44)"><path d="M993.687,293.263q0,1.159-1.312,1.159h-7.392q-1.335,0-1.334-1.159,0-1.114,1.334-1.115h2.275v-9.973l-2.1,1.291a1.131,1.131,0,0,1-.547.175.962.962,0,0,1-.776-.394,1.363,1.363,0,0,1-.317-.875,1.094,1.094,0,0,1,.568-.984l3.391-2.1a2.435,2.435,0,0,1,1.246-.393,1.336,1.336,0,0,1,.985.371,1.394,1.394,0,0,1,.371,1.028v11.854h2.3Q993.686,292.148,993.687,293.263Z" transform="translate(-983.518 -278.807)"/><path d="M1008.409,293.251q0,1.159-1.313,1.159h-8.31a1.187,1.187,0,0,1-.9-.339,1.159,1.159,0,0,1-.328-.841,1.663,1.663,0,0,1,.5-1.181l4.987-5.359a8.6,8.6,0,0,0,1.344-1.847,3.682,3.682,0,0,0,.427-1.672,2.041,2.041,0,0,0-.591-1.575,2.389,2.389,0,0,0-1.684-.547,4.615,4.615,0,0,0-1.739.339,8.769,8.769,0,0,0-1.7.929,2.628,2.628,0,0,1-.437.251,1.054,1.054,0,0,1-.437.1.8.8,0,0,1-.645-.35,1.31,1.31,0,0,1-.273-.831,1.243,1.243,0,0,1,.12-.568,1.446,1.446,0,0,1,.383-.46,7.579,7.579,0,0,1,2.252-1.213,7.818,7.818,0,0,1,2.581-.448,5.391,5.391,0,0,1,3.6,1.137,3.8,3.8,0,0,1,1.345,3.062,5.655,5.655,0,0,1-.569,2.5,11.111,11.111,0,0,1-1.924,2.613l-3.784,4.025h5.773Q1008.41,292.136,1008.409,293.251Z" transform="translate(-985.184 -278.795)"/></g><g transform="translate(979.164 251)"><path class="d" d="M986.109,256.276H984.35a3.521,3.521,0,0,0-3.517-3.517V251A5.281,5.281,0,0,1,986.109,256.276Z" transform="translate(-980.833 -251)"/></g><g transform="translate(973.888 251)"><path class="e" d="M980.109,261.552a5.276,5.276,0,0,1,0-10.552.879.879,0,1,1,0,1.759,3.517,3.517,0,0,0,0,7.034.879.879,0,1,1,0,1.759Z" transform="translate(-974.833 -251)"/></g><g transform="translate(1004.078 251)"><path class="d" d="M1014.443,256.276h-1.759a3.521,3.521,0,0,0-3.517-3.517V251A5.281,5.281,0,0,1,1014.443,256.276Z" transform="translate(-1009.167 -251)"/></g><g transform="translate(998.802 251)"><path class="e" d="M1008.443,261.552a5.276,5.276,0,0,1,0-10.552.879.879,0,1,1,0,1.759,3.517,3.517,0,0,0,0,7.034.879.879,0,1,1,0,1.759Z" transform="translate(-1003.167 -251)"/></g></g></svg>