<svg xmlns="http://www.w3.org/2000/svg" width="73.75" height="53.264" viewBox="0 0 73.75 53.264"><defs><style>.a{fill:#2fb244;}.b{fill:#f9d335;}.c{fill:#fff;}.d{fill:#d1951e;}</style></defs><rect class="a" width="35.4" height="53.264" rx="2.271"/><rect class="b" width="35.4" height="53.264" rx="2.271" transform="translate(38.35)"/><g transform="translate(10.073 12.292)"><path class="c" d="M745.542,295.713a7.79,7.79,0,0,1-4.155,2.038v2.467a1.41,1.41,0,0,1-1.463,1.463,1.385,1.385,0,0,1-1.02-.412,1.42,1.42,0,0,1-.412-1.051v-2.4a10.506,10.506,0,0,1-3.2-.762,9.505,9.505,0,0,1-2.741-1.827,1.614,1.614,0,0,1-.639-1.248,1.388,1.388,0,0,1,.426-.99,1.353,1.353,0,0,1,1-.442,1.265,1.265,0,0,1,.885.336,8.473,8.473,0,0,0,2.01,1.43,7.447,7.447,0,0,0,2.251.7V287.98a9.6,9.6,0,0,1-4.474-2.116,5.118,5.118,0,0,1-1.553-3.942,5.228,5.228,0,0,1,1.659-3.974,7.5,7.5,0,0,1,4.368-1.9v-1.582a1.392,1.392,0,0,1,.426-1.051,1.473,1.473,0,0,1,1.065-.412,1.335,1.335,0,0,1,1.006.412,1.451,1.451,0,0,1,.4,1.051v1.612a10,10,0,0,1,2.649.762,7.1,7.1,0,0,1,2.038,1.34,1.743,1.743,0,0,1,.7,1.309,1.363,1.363,0,0,1-.408.973,1.329,1.329,0,0,1-.991.426,1.007,1.007,0,0,1-.7-.242,5.672,5.672,0,0,0-1.432-1.006,7.559,7.559,0,0,0-1.856-.67v6.758a9.925,9.925,0,0,1,4.353,2.116,5.263,5.263,0,0,1,1.43,4.005A5.184,5.184,0,0,1,745.542,295.713Zm-9.379-11.95A6.208,6.208,0,0,0,738.493,285v-6.15a4.277,4.277,0,0,0-2.3,1.035,2.7,2.7,0,0,0-.031,3.882Zm7.293,10a2.418,2.418,0,0,0,.793-1.8,2.885,2.885,0,0,0-.746-1.934,5.384,5.384,0,0,0-2.116-1.293v6.119A4.6,4.6,0,0,0,743.457,293.765Z" transform="translate(-731.917 -273)"/></g><g transform="translate(46.446 17.028)"><path class="d" d="M766.483,294.52H752.069a2.4,2.4,0,0,1-2.4-2.4V277.709a2.4,2.4,0,0,1,2.4-2.4h14.414a2.4,2.4,0,0,1,2.4,2.4v14.414A2.4,2.4,0,0,1,766.483,294.52Z" transform="translate(-749.672 -275.312)"/><g transform="translate(6.67 0)"><path class="b" d="M758.8,284.916l-2.935-1.467-2.934,1.467v-9.6H758.8Z" transform="translate(-752.928 -275.312)"/></g><g transform="translate(2.315 12.691)"><rect class="b" width="4.545" height="4.545" rx="0.409"/></g></g></svg>