<svg xmlns="http://www.w3.org/2000/svg" width="138" height="138" viewBox="0 0 138 138"><defs><style>.a{fill:#0b95da;}.b{fill:#fdfefe;}</style></defs><g transform="translate(-416 -6510)"><rect class="a" width="138" height="138" rx="20" transform="translate(416 6510)"/><g transform="translate(-482.847 6715.651)"><path class="b" d="M945.59-118.244a11.146,11.146,0,0,1-3.034,2.138,21.174,21.174,0,0,1-9.573,2.256,25.347,25.347,0,0,1-3.427-.117,32.519,32.519,0,0,1-8.941-2.276,33.98,33.98,0,0,1-3.378-1.606c-.278-.151-.386-.264-.206-.593.451-.825.861-1.673,1.28-2.515.821-1.653,1.62-3.317,2.462-4.96.381-.743.17-.775,1.03-.292a22.465,22.465,0,0,0,5.358,2.311,17.271,17.271,0,0,0,7.9.284,3.5,3.5,0,0,0,2.843-2.412,2.353,2.353,0,0,0-.713-2.674,9.3,9.3,0,0,0-3.46-1.772c-2.1-.671-4.206-1.344-6.265-2.137a24.139,24.139,0,0,1-6.308-3.428,11.008,11.008,0,0,1-4.218-10.541c.524-4.783,3.365-7.887,7.508-9.952a20.065,20.065,0,0,1,7.524-1.962c.782-.059,1.58-.141,2.354-.157a20.275,20.275,0,0,1,2.576.2,41.868,41.868,0,0,1,6.19,1.109,37.57,37.57,0,0,1,6.284,2.24c.429.2.418.371.212.727q-2.183,3.777-4.33,7.575c-.2.353-.373.3-.666.159a23.77,23.77,0,0,0-6.529-2.214,17.55,17.55,0,0,0-6.49-.072,4.6,4.6,0,0,0-2.308,1.146,1.879,1.879,0,0,0-.066,2.859,10.875,10.875,0,0,0,3.852,2.368c2.481,1.069,5.113,1.715,7.619,2.716a23.118,23.118,0,0,1,4.89,2.527A10.551,10.551,0,0,1,950.2-130.4c.236-.1.231-.322.293-.485,1.1-2.917,2.222-5.827,3.281-8.759.878-2.428,1.784-4.846,2.686-7.263.665-1.783,1.358-3.559,2.041-5.337.671-1.749,1.316-3.508,1.951-5.27.093-.258.2-.349.47-.348q5.682.012,11.362,0c.311,0,.405.143.5.4q2.868,7.829,5.757,15.65,3.034,8.257,6.06,16.517a1.32,1.32,0,0,0,.115.182.982.982,0,0,0,.088-.649q0-15.648,0-31.3c0-.9-.148-.8.822-.8,5.075.021,10.151-.1,15.224.073a25.639,25.639,0,0,1,10.09,2.1,11.739,11.739,0,0,1,6.847,8.7,18.11,18.11,0,0,1-.19,8.869c-1.357,4.7-4.6,7.556-9.146,9.063a25.117,25.117,0,0,1-7.951,1.09c-1.155,0-2.311.022-3.465-.011-.471-.013-.6.122-.6.6.018,4.033,0,8.066.023,12.1,0,.551-.137.681-.684.68q-9.657-.031-19.315,0a.706.706,0,0,1-.812-.607c-.534-1.766-1.119-3.517-1.66-5.282-.116-.378-.23-.5-.654-.377a23.645,23.645,0,0,1-13.757-.067c-.376-.114-.483,0-.591.336-.586,1.836-1.205,3.661-1.791,5.5a.584.584,0,0,1-.665.5q-5.795-.027-11.589,0c-.517,0-.507-.154-.35-.546.345-.859.66-1.73.97-2.6.054-.151.249-.324.027-.5.032.032-.028.145.088.1Zm50.86-24.93c0,1.722,0,3.444,0,5.166,0,.272.005.472.377.462a40.694,40.694,0,0,0,4.763-.138,6.5,6.5,0,0,0,3.711-1.542,5.5,5.5,0,0,0,1.38-5.508c-.437-2.049-1.908-3.087-3.816-3.618a24.12,24.12,0,0,0-5.87-.408c-.479-.013-.555.172-.55.59C996.462-146.505,996.45-144.84,996.45-143.174Zm-29.855-1.13c-.1.2-.14.263-.162.332q-2.1,6.613-4.2,13.225c-.121.377,0,.479.333.583a13.148,13.148,0,0,0,7.872.051c.4-.117.484-.266.354-.675-.812-2.555-1.6-5.119-2.388-7.68Z"/><path class="a" d="M996.45-143.174c0-1.666.012-3.331-.008-5-.005-.418.071-.6.55-.59a24.12,24.12,0,0,1,5.87.408c1.908.531,3.379,1.569,3.816,3.618a5.5,5.5,0,0,1-1.38,5.508,6.5,6.5,0,0,1-3.711,1.542,40.694,40.694,0,0,1-4.763.138c-.372.01-.378-.19-.377-.462C996.452-139.73,996.45-141.452,996.45-143.174Z"/><path class="a" d="M966.595-144.3l1.806,5.836c.793,2.561,1.576,5.125,2.388,7.68.13.409.042.558-.354.675a13.148,13.148,0,0,1-7.872-.051c-.329-.1-.454-.206-.333-.583q2.117-6.607,4.2-13.225C966.455-144.041,966.5-144.1,966.595-144.3Z"/><path class="a" d="M945.59-118.244l.092.1c-.116.044-.056-.069-.088-.1Z"/></g></g></svg>