<svg xmlns="http://www.w3.org/2000/svg" xmlns:xlink="http://www.w3.org/1999/xlink" width="44.784" height="44.784" viewBox="0 0 44.784 44.784"><defs><style>.a{fill:#eaeaea;}.b{fill:url(#a);}</style><linearGradient id="a" x1="0.5" x2="0.5" y2="1" gradientUnits="objectBoundingBox"><stop offset="0" stop-color="#ff545d"/><stop offset="1" stop-color="#f76d4d"/></linearGradient></defs><ellipse class="a" cx="22.392" cy="22.392" rx="22.392" ry="22.392" transform="translate(0 0)"/><g transform="translate(6.959 13.948)"><path class="b" d="M238.947,690.142a1.35,1.35,0,0,1-.862-2.391l12.242-10.128,5.635,4.663L264.837,674a1.351,1.351,0,1,1,1.844,1.974l-10.611,9.91-5.743-4.752-10.519,8.7A1.35,1.35,0,0,1,238.947,690.142Z" transform="translate(-237.595 -673.634)"/><g transform="translate(2.701 4.4)"><path class="b" d="M255.26,688.111a19,19,0,0,1-9.093-2.076,13.388,13.388,0,0,1-6.519-7.422,1.351,1.351,0,0,1,2.6-.751,10.692,10.692,0,0,0,5.262,5.825c4.471,2.361,10.694,2.3,18.494-.188a1.351,1.351,0,0,1,.821,2.575A38.511,38.511,0,0,1,255.26,688.111Z" transform="translate(-239.595 -676.891)"/></g></g></svg>