<svg xmlns="http://www.w3.org/2000/svg" width="138" height="138" viewBox="0 0 138 138"><defs><style>.a{fill:#35455c;stroke:#707070;}.b{fill:#fff;}.c{fill:#ff775e;}.d{stroke:none;}.e{fill:none;}</style></defs><g transform="translate(-1366 -6510)"><g class="a" transform="translate(1366 6510)"><rect class="d" width="138" height="138" rx="20"/><rect class="e" x="0.5" y="0.5" width="137" height="137" rx="19.5"/></g><g transform="translate(1565 7367)"><g transform="translate(-177 -796.785)"><path class="b" d="M-163.232-786v18.275H-166.6v-7.452h-7.024v7.452H-177V-786h3.372v7.452h7.024V-786Z" transform="translate(177 786)"/></g><g transform="translate(-161.546 -792.009)"><path class="b" d="M-115.959-755.513A6.16,6.16,0,0,1-122-761.772V-769h3.372v7.228a2.788,2.788,0,0,0,2.669,2.887,2.788,2.788,0,0,0,2.669-2.887V-769h3.372v7.228A6.16,6.16,0,0,1-115.959-755.513Z" transform="translate(122 769)"/></g><g transform="translate(-147.778 -796.381)"><path class="b" d="M-66.116-780.188a6.813,6.813,0,0,0-3.512.967v-5.339H-73V-773.3a6.892,6.892,0,0,0,6.884,6.884,6.892,6.892,0,0,0,6.884-6.884A6.892,6.892,0,0,0-66.116-780.188Zm0,10.4a3.517,3.517,0,0,1-3.512-3.512,3.517,3.517,0,0,1,3.512-3.512A3.517,3.517,0,0,1-62.6-773.3,3.517,3.517,0,0,1-66.116-769.792Z" transform="translate(73 784.56)"/></g><g transform="translate(-120.242 -792.009)"><path class="b" d="M31.884-769a6.89,6.89,0,0,0-6.876,6.586c-.006.1-.008.2-.008.3v10.958h3.372V-756.2a6.813,6.813,0,0,0,3.512.967,6.892,6.892,0,0,0,6.884-6.884A6.892,6.892,0,0,0,31.884-769Zm0,10.4a3.517,3.517,0,0,1-3.512-3.512,3.517,3.517,0,0,1,3.512-3.512,3.517,3.517,0,0,1,3.512,3.512A3.517,3.517,0,0,1,31.884-758.6Z" transform="translate(-25 769)"/></g><g transform="translate(-120.242 -785.422)"><path class="b" d="M25.008-745.56c-.006.1-.008.2-.008.3v-.3Z" transform="translate(-25 745.56)"/></g><g transform="translate(-133.488 -796.504)"><path class="b" d="M-16.568-766.736c-2.652,0-5.282-2.436-5.573-2.714l2.325-2.443a6.445,6.445,0,0,0,3.249,1.784,2.19,2.19,0,0,0,2.334-2.248c0-.706-.867-1.342-1.384-1.658a5.556,5.556,0,0,0-1.524-.617,6.789,6.789,0,0,1-4.157-2.758,5.2,5.2,0,0,1,.042-5.017A5.4,5.4,0,0,1-16.2-785a7.644,7.644,0,0,1,5.262,1.87l-2.255,2.507a4.346,4.346,0,0,0-3.006-1.006,2.243,2.243,0,0,0-2.123.884,1.882,1.882,0,0,0-.085,1.621,3.475,3.475,0,0,0,2.1,1.226,8.912,8.912,0,0,1,2.45,1.007c2.477,1.514,3,3.3,3,4.535A5.549,5.549,0,0,1-16.568-766.736Z" transform="translate(22.141 785)"/></g><g transform="translate(-89.335 -795.661)"><path class="b" d="M141.6-768.232l-.562,3.372H140.01a5.016,5.016,0,0,1-5.01-5.01V-780.6l3.372-1.4v3.653h2.883v3.372h-2.883v5.105a1.642,1.642,0,0,0,1.638,1.638Z" transform="translate(-135 782)"/></g><g transform="translate(-116.168 -801)"><path class="c" d="M58.888-791.916v-3.431a2.668,2.668,0,0,0,1.545-2.422,2.668,2.668,0,0,0-2.669-2.669,2.668,2.668,0,0,0-2.669,2.669,2.668,2.668,0,0,0,1.545,2.422v3.431a6.777,6.777,0,0,0-2.942,1.242l-8.932-7.039a2.623,2.623,0,0,0,.073-.618A2.668,2.668,0,0,0,42.169-801a2.668,2.668,0,0,0-2.669,2.669,2.668,2.668,0,0,0,2.669,2.669,2.7,2.7,0,0,0,1.2-.284l8.744,6.89a6.846,6.846,0,0,0-1.236,3.931,6.844,6.844,0,0,0,1.085,3.7l-2.324,2.458a2.221,2.221,0,0,0-.728-.121,2.247,2.247,0,0,0-2.248,2.248,2.247,2.247,0,0,0,2.248,2.248,2.247,2.247,0,0,0,2.248-2.248,2.305,2.305,0,0,0-.039-.421l2.352-2.489a6.85,6.85,0,0,0,4.291,1.506,6.892,6.892,0,0,0,6.884-6.884A6.893,6.893,0,0,0,58.888-791.916Zm-1.124,10.3a3.517,3.517,0,0,1-3.512-3.512,3.517,3.517,0,0,1,3.512-3.512,3.517,3.517,0,0,1,3.512,3.512A3.517,3.517,0,0,1,57.764-781.612Z" transform="translate(-39.5 801)"/></g></g></g></svg>