<svg xmlns="http://www.w3.org/2000/svg" xmlns:xlink="http://www.w3.org/1999/xlink" width="84" height="64" viewBox="0 0 84 64"><defs><style>.a{fill:#fff;}.b{fill:#ff1321;}.c{fill:#ff9e00;}.d{fill:#ff6618;}.e{fill:#454545;}.f{filter:url(#a);}</style><filter id="a" x="0" y="0" width="84" height="64" filterUnits="userSpaceOnUse"><feOffset dy="4" input="SourceAlpha"/><feGaussianBlur stdDeviation="3" result="b"/><feFlood flood-opacity="0.161"/><feComposite operator="in" in2="b"/><feComposite in="SourceGraphic"/></filter></defs><g transform="translate(9.423 5.182)"><g class="f" transform="matrix(1, 0, 0, 1, -9.42, -5.18)"><rect class="a" width="66" height="46" rx="10" transform="translate(9 5)"/></g><g transform="translate(16.988 10.82)"><path class="b" d="M163.024,319.028a9.438,9.438,0,0,1,3.451-7.015,9.478,9.478,0,0,0-5.751-2.112,9.373,9.373,0,1,0,5.732,16.651A9.387,9.387,0,0,1,163.024,319.028Z" transform="translate(-151.178 -309.9)"/><path class="c" d="M191.184,309.943a9.307,9.307,0,0,0-6.091,2.112,9.4,9.4,0,0,1,0,14.557,9.243,9.243,0,0,0,5.789,2.093,9.382,9.382,0,0,0,.3-18.762Z" transform="translate(-169.797 -309.923)"/><path class="d" d="M184.381,321.925a9.268,9.268,0,0,0-3.451-7.3,9.415,9.415,0,0,0,0,14.576A9.49,9.49,0,0,0,184.381,321.925Z" transform="translate(-165.615 -312.495)"/><path class="e" d="M156.881,358.713h-.547V357.3a.539.539,0,0,0-.717-.585.5.5,0,0,0-.434.547v1.471h-.528v-2.47h.509c.019.076.019.151.038.264a.956.956,0,0,1,1.528.094,1.116,1.116,0,0,1,.867-.434.911.911,0,0,1,.943.943v1.339a1.153,1.153,0,0,1-.019.245h-.509V357.3a.532.532,0,0,0-.736-.566.5.5,0,0,0-.415.547C156.881,357.751,156.881,358.222,156.881,358.713Z" transform="translate(-153.087 -335.31)"/><path class="e" d="M211.419,354.179h.528v3.451h-.49c-.019-.056-.019-.113-.038-.169-.848.377-1.339.321-1.754-.226a1.392,1.392,0,0,1,.056-1.754c.415-.49.886-.509,1.716-.075C211.419,354.99,211.419,354.594,211.419,354.179Zm.057,2.244a.774.774,0,1,0-.792.811A.84.84,0,0,0,211.476,356.423Z" transform="translate(-183.131 -334.208)"/><path class="e" d="M200.788,358.736c-.189-.094-.453.151-.547-.226a1.177,1.177,0,0,1-1.131.207,1.823,1.823,0,0,1-.641-.49,1.368,1.368,0,0,1,.132-1.716c.415-.453.924-.472,1.659-.038.019-.075.019-.132.038-.226h.49Zm-2-1.263a.816.816,0,0,0,.754.848.793.793,0,0,0,.774-.792.8.8,0,0,0-.736-.848A.785.785,0,0,0,198.789,357.472Z" transform="translate(-177.006 -335.295)"/><path class="e" d="M166.432,358.68c0-.056-.019-.113-.019-.17a1.221,1.221,0,0,1-2-.754,1.289,1.289,0,0,1,.509-1.414,1.126,1.126,0,0,1,1.471.132c.019-.094.019-.17.037-.264h.49v2.47Zm-.716-2.017a.786.786,0,0,0-.773.811.794.794,0,0,0,.755.81.811.811,0,0,0,.019-1.621Z" transform="translate(-158.415 -335.278)"/><path class="e" d="M184.655,357.719h-1.772c-.019.641.585.792,1.414.377l.226.4a1.457,1.457,0,0,1-1.773.151,1.4,1.4,0,0,1-.4-1.659,1.244,1.244,0,0,1,1.4-.735,1.115,1.115,0,0,1,.924,1.131A1.822,1.822,0,0,0,184.655,357.719Zm-.566-.415c-.019-.415-.264-.622-.717-.584a.5.5,0,0,0-.49.584Z" transform="translate(-168.227 -335.334)"/><path class="e" d="M171.522,358.155a5.342,5.342,0,0,0,.7.17.925.925,0,0,0,.4-.019,1.679,1.679,0,0,0,.321-.226c-.094-.075-.17-.189-.283-.226-.207-.075-.415-.075-.622-.132a.741.741,0,0,1-.641-.717.756.756,0,0,1,.585-.736,1.98,1.98,0,0,1,1.49.226c-.094.132-.17.264-.264.4a2.977,2.977,0,0,0-.547-.151,1.753,1.753,0,0,0-.547.038.28.28,0,0,0-.151.226c0,.056.113.17.189.189.207.056.415.075.622.113.528.075.754.321.717.773a.669.669,0,0,1-.509.66,1.907,1.907,0,0,1-1.678-.245Q171.437,358.3,171.522,358.155Z" transform="translate(-162.222 -335.318)"/><path class="e" d="M178.909,357.386c.057.151.132.321.207.528a6.674,6.674,0,0,1-.792.17.792.792,0,0,1-.848-.848v-1.226a3.776,3.776,0,0,0-.453-.019v-.509c.151,0,.283-.019.453-.019v-.7h.585v.7h.867v.547h-.848c0,.452-.019.867,0,1.263,0,.189.189.245.358.245A2.573,2.573,0,0,0,178.909,357.386Z" transform="translate(-165.366 -334.53)"/><path class="e" d="M194.622,358.086c.075.17.151.321.226.471a1.456,1.456,0,0,1-1.886-.17,1.37,1.37,0,0,1-.019-1.772,1.48,1.48,0,0,1,1.924-.094c-.076.151-.17.3-.264.471a.927.927,0,0,0-.811-.226.937.937,0,0,0-.414.245.882.882,0,0,0,.037,1.113C193.717,358.407,194.076,358.407,194.622,358.086Z" transform="translate(-173.933 -335.324)"/><path class="e" d="M206,358.721h-.547v-2.47h.49a1.992,1.992,0,0,1,.056.226c.321-.17.622-.452,1.056-.226-.056.151-.094.3-.151.471a.99.99,0,0,0-.207-.037.556.556,0,0,0-.7.6c0,.4,0,.792.019,1.188A.99.99,0,0,0,206,358.721Z" transform="translate(-180.975 -335.299)"/><path class="e" d="M189.406,358.73H188.9v-2.489h.49c.019.076.019.151.038.264.339-.189.641-.471,1.075-.226l-.17.453a.968.968,0,0,0-.207-.038.563.563,0,0,0-.7.6C189.406,357.769,189.406,358.24,189.406,358.73Z" transform="translate(-171.885 -335.309)"/><path class="e" d="M217.173,361.583c-.075-.094-.17-.17-.189-.283-.038-.151.075-.245.226-.264.17,0,.283.094.264.245a.827.827,0,0,1-.189.283A.243.243,0,0,1,217.173,361.583Z" transform="translate(-187.3 -337.973)"/></g></g></svg>