<svg xmlns="http://www.w3.org/2000/svg" width="51.889" height="40.358" viewBox="0 0 51.889 40.358"><defs><style>.a{fill:#ff545d;}</style></defs><path class="a" d="M0,38.284a4.325,4.325,0,0,0,4.324,4.324H47.565a4.325,4.325,0,0,0,4.324-4.324V22.429H0Zm17.3-6.126a1.084,1.084,0,0,1,1.081-1.081H30.629a1.084,1.084,0,0,1,1.081,1.081v3.6a1.084,1.084,0,0,1-1.081,1.081H18.377A1.084,1.084,0,0,1,17.3,35.762Zm-11.531,0a1.084,1.084,0,0,1,1.081-1.081h6.486a1.084,1.084,0,0,1,1.081,1.081v3.6a1.084,1.084,0,0,1-1.081,1.081H6.846a1.084,1.084,0,0,1-1.081-1.081ZM51.889,6.574V10.9H0V6.574A4.325,4.325,0,0,1,4.324,2.25H47.565A4.325,4.325,0,0,1,51.889,6.574Z" transform="translate(0 -2.25)"/></svg>