<svg xmlns="http://www.w3.org/2000/svg" xmlns:xlink="http://www.w3.org/1999/xlink" width="50" height="50" viewBox="0 0 50 50"><defs><style>.a{fill:url(#a);}.b{fill:#fff;}</style><linearGradient id="a" y1="0.5" x2="1" y2="0.5" gradientUnits="objectBoundingBox"><stop offset="0" stop-color="#00aae9"/><stop offset="1" stop-color="#61d2e5"/></linearGradient></defs><g transform="translate(0 -0.323)"><rect class="a" width="50" height="50" rx="10.25" transform="translate(0 0.323)"/><path class="b" d="M546.925,766.288l-2.57-7.709a2.43,2.43,0,0,0-2.31-1.666h-7.18v9.75h12.122A2.363,2.363,0,0,0,546.925,766.288Zm-13.685-9.375h-7.181a2.431,2.431,0,0,0-2.311,1.666l-2.569,7.709a2.36,2.36,0,0,0-.06.375H533.24Zm-12.188,11.375v12.188a2.438,2.438,0,0,0,2.438,2.437h21.125a2.437,2.437,0,0,0,2.437-2.437V768.288Z" transform="translate(-509.052 -744.913)"/></g></svg>