<svg xmlns="http://www.w3.org/2000/svg" xmlns:xlink="http://www.w3.org/1999/xlink" width="64" height="64" viewBox="0 0 64 64"><defs><style>.a{fill:url(#a);}.b{fill:#fff;}.c{filter:url(#b);}</style><linearGradient id="a" x1="0.5" x2="0.5" y2="1" gradientUnits="objectBoundingBox"><stop offset="0" stop-color="#39b0e3"/><stop offset="1" stop-color="#1c93d2"/></linearGradient><filter id="b" x="0" y="0" width="64" height="64" filterUnits="userSpaceOnUse"><feOffset dy="4" input="SourceAlpha"/><feGaussianBlur stdDeviation="3" result="c"/><feFlood flood-opacity="0.161"/><feComposite operator="in" in2="c"/><feComposite in="SourceGraphic"/></filter></defs><g transform="translate(9 5.182)"><g class="c" transform="matrix(1, 0, 0, 1, -9, -5.18)"><rect class="a" width="46" height="46" rx="10" transform="translate(9 5)"/></g><path class="b" d="M27.19,6.61l-4.115,19.4c-.31,1.37-1.12,1.71-2.27,1.065l-6.269-4.62L11.51,25.37a1.574,1.574,0,0,1-1.26.615L10.7,19.6,22.321,9.1c.505-.45-.11-.7-.785-.25L7.171,17.895.986,15.959c-1.345-.42-1.37-1.345.28-1.99L25.456,4.65c1.12-.42,2.1.25,1.735,1.96Z" transform="translate(7.999 7.562)"/></g></svg>