<svg xmlns="http://www.w3.org/2000/svg" xmlns:xlink="http://www.w3.org/1999/xlink" width="64" height="64" viewBox="0 0 64 64"><defs><style>.a{fill:#1ca1f1;}.b{fill:#fff;}.c{filter:url(#a);}</style><filter id="a" x="0" y="0" width="64" height="64" filterUnits="userSpaceOnUse"><feOffset dy="4" input="SourceAlpha"/><feGaussianBlur stdDeviation="3" result="b"/><feFlood flood-opacity="0.161"/><feComposite operator="in" in2="b"/><feComposite in="SourceGraphic"/></filter></defs><g transform="translate(9 5.182)"><g class="c" transform="matrix(1, 0, 0, 1, -9, -5.18)"><rect class="a" width="46" height="46" rx="10" transform="translate(9 5)"/></g><path class="b" d="M20.892,8.094c.015.207.015.414.015.621A13.485,13.485,0,0,1,7.328,22.293,13.486,13.486,0,0,1,0,20.15a9.872,9.872,0,0,0,1.152.059,9.558,9.558,0,0,0,5.925-2.039,4.781,4.781,0,0,1-4.462-3.31,6.018,6.018,0,0,0,.9.074,5.047,5.047,0,0,0,1.256-.162A4.773,4.773,0,0,1,.946,10.089V10.03a4.806,4.806,0,0,0,2.157.606A4.779,4.779,0,0,1,1.625,4.252a13.565,13.565,0,0,0,9.84,4.994,5.387,5.387,0,0,1-.118-1.093,4.777,4.777,0,0,1,8.259-3.265,9.4,9.4,0,0,0,3.029-1.152,4.759,4.759,0,0,1-2.1,2.63,9.567,9.567,0,0,0,2.748-.739,10.259,10.259,0,0,1-2.393,2.467Z" transform="translate(11 10.437)"/></g></svg>